<svg xmlns="http://www.w3.org/2000/svg" xmlns:xlink="http://www.w3.org/1999/xlink" width="113.489" height="90.437" viewBox="0 0 113.489 90.437"><defs><style>.a{fill:url(#a);}.b{fill:#fff;stroke:#fff;}</style><linearGradient id="a" x1="0.182" y1="0.103" x2="0.941" y2="0.9" gradientUnits="objectBoundingBox"><stop offset="0" stop-color="#8711ef"/><stop offset="1" stop-color="#670fe9"/></linearGradient></defs><path class="a" d="M12.519,11.819A11.309,11.309,0,0,1,23.572,0H89.926a11.309,11.309,0,0,1,11.052,11.819c-.206,5.907.061,13.558,1.987,19.8,1.932,6.258,5.189,10.213,10.524,10.722V48.1c-5.335.508-8.593,4.464-10.524,10.722-1.926,6.239-2.193,13.89-1.987,19.8A11.309,11.309,0,0,1,89.926,90.437H23.572A11.309,11.309,0,0,1,12.52,78.618c.205-5.907-.062-13.558-1.987-19.8C8.6,52.564,5.335,48.608,0,48.1V42.337c5.335-.508,8.6-4.464,10.532-10.722,1.926-6.239,2.193-13.89,1.987-19.8Z"/><path class="b" d="M197.673,143.557c10.484,0,16.8-5.133,16.8-13.6,0-6.4-4.508-11.033-11.2-11.767v-.267a10.747,10.747,0,0,0,8.776-10.466c0-7.267-5.737-12-14.479-12H177.9v48.1Zm-12.123-42h10.177c5.532,0,8.674,2.467,8.674,6.933,0,4.767-3.654,7.433-10.279,7.433H185.55Zm0,35.9V121.624h10.108c7.24,0,11,2.667,11,7.867S203,137.457,196.1,137.457Z" transform="translate(-138.468 -74.298)"/></svg>