<svg xmlns="http://www.w3.org/2000/svg" width="95.359" height="99.34" viewBox="0 0 95.359 99.34"><defs><style>.a{fill:#99d3e0;}.b{fill:#7bbccf;}.c{fill:#e1f1fa;}.d{fill:#bfe1ff;}</style></defs><path class="a" d="M106.434,57.217l-7.1-14.261A43.714,43.714,0,0,0,55.677,0a46.854,46.854,0,0,0-5.7.349c-21.653,2.794-37.951,22-37.951,44.7v5.7c0,14.435,6.345,27.125,17.462,35.157V96.43a2.882,2.882,0,0,0,2.91,2.91H73.14a2.882,2.882,0,0,0,2.91-2.91V87.311h8.731A14.557,14.557,0,0,0,99.333,72.759v-2.91a8.807,8.807,0,0,0,6.752-4.133A8.673,8.673,0,0,0,106.434,57.217Z" transform="translate(-12.022)"/><path class="b" d="M326.1,65.716a8.807,8.807,0,0,1-6.752,4.133v2.91A14.557,14.557,0,0,1,304.8,87.311h-8.731V96.43a2.882,2.882,0,0,1-2.91,2.91H275.694V0a43.713,43.713,0,0,1,43.655,42.957l7.1,14.261A8.672,8.672,0,0,1,326.1,65.716Z" transform="translate(-232.039)"/><path class="c" d="M114.466,70.313a35.244,35.244,0,0,0-8.673,1.164A31.588,31.588,0,0,0,83.617,93.654a32.236,32.236,0,0,0,8.207,31.315,32.026,32.026,0,1,0,22.643-54.656Z" transform="translate(-70.811 -58.671)"/><path class="d" d="M306.543,111a31.719,31.719,0,0,1-30.85,23.341V70.313A32.077,32.077,0,0,1,306.543,111Z" transform="translate(-232.038 -58.671)"/><path class="a" d="M159.322,227.548l-5.821-5.821a2.909,2.909,0,0,1,0-4.115l5.821-5.821a2.91,2.91,0,1,1,4.115,4.115l-3.763,3.763,3.763,3.763a2.91,2.91,0,1,1-4.115,4.115Z" transform="translate(-129.365 -176.014)"/><path class="b" d="M329.281,227.547a2.909,2.909,0,0,1,0-4.115l3.763-3.763-3.763-3.763a2.91,2.91,0,1,1,4.115-4.115l5.821,5.821a2.909,2.909,0,0,1,0,4.115l-5.821,5.821A2.908,2.908,0,0,1,329.281,227.547Z" transform="translate(-276.042 -176.013)"/><path class="a" d="M252.193,179.495l-5.7,22.817-.117.466a2.856,2.856,0,0,1-2.794,2.212,2.909,2.909,0,0,1-2.794-3.609l5.7-22.817.117-.466a2.88,2.88,0,1,1,5.588,1.4Z" transform="translate(-202.834 -146.782)"/><path class="b" d="M281.4,179.494l-5.7,22.817V178.562l.117-.466a2.88,2.88,0,1,1,5.588,1.4Z" transform="translate(-232.038 -146.782)"/></svg>