<svg xmlns="http://www.w3.org/2000/svg" width="99.34" height="99.34" viewBox="0 0 99.34 99.34"><defs><style>.a{fill:#7bbccf;}.b{fill:#58a5b7;}.c{fill:#7ecee0;}.d{fill:#4d8b99;}.e{fill:#e1f1fa;}.f{fill:#354144;}.g{fill:#293335;}.h{fill:#d9edfc;}.i{fill:#6fbcce;}.j{fill:#313c3f;}.k{fill:#151c1e;}</style></defs><path class="a" d="M146.37,337.168V348.81a2.91,2.91,0,0,1-5.82,0V337.168a2.882,2.882,0,0,0-2.91-2.91H111.252V348.81a2.91,2.91,0,0,1-5.821,0V334.258H79.044a2.882,2.882,0,0,0-2.91,2.91V348.81a2.91,2.91,0,0,1-5.821,0V337.168a8.719,8.719,0,0,1,8.731-8.731h26.387v-9.119a2.91,2.91,0,0,1,5.821,0v9.119h26.387A8.719,8.719,0,0,1,146.37,337.168Z" transform="translate(-58.671 -264.021)"/><path class="b" d="M338.029,337.167v11.641a2.91,2.91,0,0,1-5.821,0V337.167a2.882,2.882,0,0,0-2.91-2.91H302.91v14.552a2.882,2.882,0,0,1-2.91,2.91V316.406a2.882,2.882,0,0,1,2.91,2.91v9.119H329.3A8.719,8.719,0,0,1,338.029,337.167Z" transform="translate(-250.33 -264.02)"/><g transform="translate(0 81.878)"><path class="c" d="M20.373,511.995H8.731A8.741,8.741,0,0,1,0,503.264H0a8.741,8.741,0,0,1,8.731-8.731H20.373a8.741,8.741,0,0,1,8.731,8.731h0A8.741,8.741,0,0,1,20.373,511.995Z" transform="translate(0 -494.533)"/><path class="c" d="M232.482,494.531H220.84a8.719,8.719,0,0,0-8.731,8.731h0a8.719,8.719,0,0,0,8.731,8.731h11.642a8.719,8.719,0,0,0,8.731-8.731h0A8.719,8.719,0,0,0,232.482,494.531Z" transform="translate(-176.991 -494.531)"/></g><g transform="translate(49.67 81.878)"><path class="d" d="M444.591,511.995H432.95a8.741,8.741,0,0,1-8.731-8.731h0a8.741,8.741,0,0,1,8.731-8.731h11.642a8.741,8.741,0,0,1,8.731,8.731h0A8.741,8.741,0,0,1,444.591,511.995Z" transform="translate(-403.652 -494.533)"/><path class="d" d="M314.552,503.262h0a8.719,8.719,0,0,1-8.731,8.731H300V494.531h5.821A8.719,8.719,0,0,1,314.552,503.262Z" transform="translate(-300 -494.531)"/></g><path class="e" d="M182.426,23.4V52.5H124.219V23.4a5.838,5.838,0,0,1,5.821-5.821h46.566A5.838,5.838,0,0,1,182.426,23.4Z" transform="translate(-103.652 -14.668)"/><g transform="translate(17.656)"><path class="f" d="M240.987,259.364l-5.821-11.642a2.979,2.979,0,0,0-2.619-1.63H220.906a2.979,2.979,0,0,0-2.619,1.63l-5.821,11.642a2.62,2.62,0,0,0-.233,1.63H241.22A2.621,2.621,0,0,0,240.987,259.364Z" transform="translate(-194.713 -205.348)"/><path class="c" d="M161.938,0H115.372a8.719,8.719,0,0,0-8.731,8.731V34.924l7.509,5.821h48.777l7.742-5.821V8.731A8.719,8.719,0,0,0,161.938,0Zm2.91,34.924H112.462V8.731a2.882,2.882,0,0,1,2.91-2.91h46.566a2.882,2.882,0,0,1,2.91,2.91Z" transform="translate(-106.641)"/></g><path class="g" d="M314.494,261H300v-14.9h5.821a2.979,2.979,0,0,1,2.619,1.63l5.821,11.642A2.617,2.617,0,0,1,314.494,261Z" transform="translate(-250.33 -205.349)"/><path class="h" d="M329.1,23.4V52.5H300V17.578h23.283A5.838,5.838,0,0,1,329.1,23.4Z" transform="translate(-250.33 -14.668)"/><path class="i" d="M332.014,8.731V34.924l-7.742,5.821H300V34.924h26.193V8.731a2.882,2.882,0,0,0-2.91-2.91H300V0h23.283A8.719,8.719,0,0,1,332.014,8.731Z" transform="translate(-250.33)"/><g transform="translate(17.656 34.924)"><path class="a" d="M106.641,210.938v2.91a8.719,8.719,0,0,0,8.731,8.731h46.566a8.719,8.719,0,0,0,8.731-8.731v-2.91Z" transform="translate(-106.641 -210.938)"/><path class="j" d="M217.7,319.316a2.882,2.882,0,0,1-2.91,2.91H179.863a2.91,2.91,0,1,1,0-5.821h34.924A2.882,2.882,0,0,1,217.7,319.316Z" transform="translate(-165.312 -298.944)"/></g><g transform="translate(49.67 34.924)"><path class="a" d="M323.283,222.579H300V210.937h32.014v2.91A8.719,8.719,0,0,1,323.283,222.579Z" transform="translate(-300 -210.937)"/><path class="k" d="M320.373,319.316a2.882,2.882,0,0,1-2.91,2.91H300v-5.821h17.462A2.882,2.882,0,0,1,320.373,319.316Z" transform="translate(-300 -298.944)"/></g></svg>