<svg xmlns="http://www.w3.org/2000/svg" width="85.024" height="104.352" viewBox="0 0 85.024 104.352"><defs><style>.a{fill:#7bbccf;}.b{fill:#197084;}.c{fill:#80d0dd;}.d{fill:#308396;}.e{fill:#414952;}.f{fill:#23272b;}.g{fill:#095b68;}</style></defs><path class="a" d="M148.487,194.589H94.423a3.116,3.116,0,0,1-3.106-2.859l-6.235-75.019a3.116,3.116,0,0,1,3.107-3.375h66.531a3.116,3.116,0,0,1,3.107,3.375l-6.235,75.019A3.116,3.116,0,0,1,148.487,194.589Z" transform="translate(-78.943 -90.237)"/><path class="b" d="M296.848,113.336H263.582v81.253h27.032a3.116,3.116,0,0,0,3.106-2.859l6.235-75.019a3.116,3.116,0,0,0-3.107-3.375Z" transform="translate(-221.07 -90.237)"/><path class="a" d="M218.794,17.456H196.351a3.117,3.117,0,0,1-3.117-3.117,14.338,14.338,0,1,1,28.676,0A3.117,3.117,0,0,1,218.794,17.456Z" transform="translate(-165.06)"/><path class="b" d="M263.582,0V17.456H274.8a3.117,3.117,0,0,0,3.117-3.117A14.355,14.355,0,0,0,263.582,0Z" transform="translate(-221.07)"/><path class="c" d="M219.411,244.317a3.117,3.117,0,0,0-4.1,1.616l-.76,1.747a18.828,18.828,0,0,0-4.96-5.664,18.5,18.5,0,0,0-11.255-3.777,18.693,18.693,0,0,0-16.28,9.54,3.117,3.117,0,1,0,5.436,3.05,12.422,12.422,0,0,1,21.507-.3l-2.546-1.108a3.117,3.117,0,0,0-2.485,5.717L213,259.065a3.115,3.115,0,0,0,4.1-1.615l3.927-9.032A3.116,3.116,0,0,0,219.411,244.317Z" transform="translate(-155.842 -189.683)"/><path class="d" d="M284.638,244.321a3.117,3.117,0,0,0-4.1,1.616l-.76,1.747a18.827,18.827,0,0,0-4.96-5.664,18.486,18.486,0,0,0-11.237-3.776v6.234a12.516,12.516,0,0,1,10.645,6.055l-2.546-1.108a3.117,3.117,0,0,0-2.485,5.717l9.032,3.927a3.115,3.115,0,0,0,4.1-1.615l3.927-9.032A3.117,3.117,0,0,0,284.638,244.321Z" transform="translate(-221.069 -189.687)"/><path class="c" d="M189.109,336.741a3.118,3.118,0,0,0-4.244,1.193,12.421,12.421,0,0,1-21.506.3l2.546,1.107a3.117,3.117,0,1,0,2.486-5.716l-9.032-3.927a3.116,3.116,0,0,0-4.1,1.616l-3.927,9.032a3.117,3.117,0,1,0,5.717,2.486l.759-1.747a18.827,18.827,0,0,0,4.96,5.664,18.5,18.5,0,0,0,11.255,3.777,18.692,18.692,0,0,0,16.28-9.54A3.118,3.118,0,0,0,189.109,336.741Z" transform="translate(-131.491 -262.296)"/><path class="d" d="M278.688,363.706a3.118,3.118,0,0,0-4.244,1.193,12.451,12.451,0,0,1-10.843,6.357h-.018v6.234h.018a18.693,18.693,0,0,0,16.28-9.54A3.117,3.117,0,0,0,278.688,363.706Z" transform="translate(-221.07 -289.261)"/><path class="e" d="M136.907,73.17H58.117A3.117,3.117,0,0,1,55,70.053,15.012,15.012,0,0,1,69.994,55.059h55.035a15.012,15.012,0,0,1,14.994,14.994A3.117,3.117,0,0,1,136.907,73.17Z" transform="translate(-55 -43.837)"/><path class="f" d="M291.1,55.059H263.582V73.17h39.4a3.117,3.117,0,0,0,3.117-3.117A15.012,15.012,0,0,0,291.1,55.059Z" transform="translate(-221.07 -43.837)"/><path class="c" d="M87.068,153.258h70.717l.775-9.336H86.293Z" transform="translate(-79.915 -114.589)"/><path class="g" d="M263.582,153.258h35.359l.775-9.336H263.582Z" transform="translate(-221.07 -114.589)"/></svg>