<svg xmlns="http://www.w3.org/2000/svg" width="89.987" height="89.987" viewBox="0 0 89.987 89.987"><defs><style>.a{fill:#3a97ad;}.b{fill:#117889;}.c{fill:#7bbccf;}.d{fill:#394c60;}.e{fill:#e1f1fa;}.f{fill:#14b3c4;}.g{fill:#242b33;}</style></defs><path class="a" d="M99.489,534.961H72.949a2.636,2.636,0,1,1,0-5.273H99.489a2.636,2.636,0,1,1,0,5.273Z" transform="translate(-59.768 -450.246)"/><path class="b" d="M346.754,534.961H320.214a2.636,2.636,0,1,1,0-5.273h26.539a2.636,2.636,0,1,1,0,5.273Z" transform="translate(-269.948 -450.246)"/><path class="a" d="M287.695,424.511v10.9a2.636,2.636,0,0,1-5.273,0v-10.9a2.636,2.636,0,0,1,5.273,0Z" transform="translate(-240.065 -358.603)"/><path class="b" d="M302.636,424.511v10.9A2.611,2.611,0,0,1,300,438.044V421.875A2.61,2.61,0,0,1,302.636,424.511Z" transform="translate(-255.006 -358.603)"/><path class="c" d="M255.175,494.531a7.909,7.909,0,1,0,7.909,7.909A7.9,7.9,0,0,0,255.175,494.531Z" transform="translate(-210.181 -420.362)"/><path class="d" d="M502.442,510.351a7.909,7.909,0,1,1,7.909-7.909A7.918,7.918,0,0,1,502.442,510.351Z" transform="translate(-420.364 -420.364)"/><path class="e" d="M532.324,534.961a2.636,2.636,0,1,1,2.636-2.636A2.64,2.64,0,0,1,532.324,534.961Z" transform="translate(-450.246 -450.246)"/><path class="c" d="M7.909,510.351a7.909,7.909,0,1,1,7.909-7.909A7.918,7.918,0,0,1,7.909,510.351Z" transform="translate(0 -420.364)"/><path class="e" d="M37.792,534.961a2.636,2.636,0,1,1,2.636-2.636A2.639,2.639,0,0,1,37.792,534.961Z" transform="translate(-29.883 -450.246)"/><g transform="translate(5.273 21.091)"><path class="d" d="M111.962,140.625H37.792a2.61,2.61,0,0,0-2.636,2.636v10.545a2.611,2.611,0,0,0,2.636,2.636h74.169a2.611,2.611,0,0,0,2.636-2.636V143.261A2.61,2.61,0,0,0,111.962,140.625Z" transform="translate(-35.156 -140.625)"/><path class="d" d="M111.962,351.563H37.792a2.61,2.61,0,0,0-2.636,2.636v5.273a7.9,7.9,0,0,0,7.909,7.909h63.624a7.9,7.9,0,0,0,7.909-7.909V354.2A2.61,2.61,0,0,0,111.962,351.563Z" transform="translate(-35.156 -319.927)"/></g><path class="c" d="M82.078,210.938H7.909A7.9,7.9,0,0,0,0,218.847v10.545A7.9,7.9,0,0,0,7.909,237.3H82.078a7.9,7.9,0,0,0,7.909-7.909V218.847A7.9,7.9,0,0,0,82.078,210.938Z" transform="translate(0 -179.302)"/><path class="f" d="M307.909,502.44A7.9,7.9,0,0,1,300,510.349V494.531A7.9,7.9,0,0,1,307.909,502.44Z" transform="translate(-255.006 -420.362)"/><path class="e" d="M285.058,534.961a2.636,2.636,0,1,1,2.636-2.636A2.639,2.639,0,0,1,285.058,534.961Z" transform="translate(-240.065 -450.246)"/><path class="e" d="M302.636,532.324A2.64,2.64,0,0,0,300,529.688v5.273A2.639,2.639,0,0,0,302.636,532.324Z" transform="translate(-255.006 -450.246)"/><g transform="translate(44.994 21.091)"><path class="g" d="M339.721,143.261v10.545a2.611,2.611,0,0,1-2.636,2.636H300V140.625h37.085A2.611,2.611,0,0,1,339.721,143.261Z" transform="translate(-300 -140.625)"/><path class="g" d="M339.721,354.2v5.273a7.9,7.9,0,0,1-7.909,7.909H300V351.563h37.085A2.611,2.611,0,0,1,339.721,354.2Z" transform="translate(-300 -319.927)"/></g><path class="b" d="M344.994,218.847v10.545a7.9,7.9,0,0,1-7.909,7.909H300V210.938h37.085A7.9,7.9,0,0,1,344.994,218.847Z" transform="translate(-255.006 -179.302)"/><path class="c" d="M82.078,0H7.909A7.9,7.9,0,0,0,0,7.909V18.454a7.9,7.9,0,0,0,7.909,7.909H82.078a7.9,7.9,0,0,0,7.909-7.909V7.909A7.9,7.9,0,0,0,82.078,0Z"/><path class="b" d="M344.994,7.909V18.454a7.9,7.9,0,0,1-7.909,7.909H300V0h37.085A7.9,7.9,0,0,1,344.994,7.909Z" transform="translate(-255.006)"/><circle class="e" cx="2.636" cy="2.636" r="2.636" transform="translate(10.545 10.545)"/><g transform="translate(21.267 10.545)"><circle class="e" cx="2.636" cy="2.636" r="2.636"/><circle class="e" cx="2.636" cy="2.636" r="2.636" transform="translate(10.545)"/></g><path class="g" d="M346.754,75.586H320.214a2.636,2.636,0,0,1,0-5.273h26.539a2.636,2.636,0,1,1,0,5.273Z" transform="translate(-269.948 -59.768)"/><circle class="e" cx="2.636" cy="2.636" r="2.636" transform="translate(10.545 42.182)"/><g transform="translate(21.267 42.182)"><circle class="e" cx="2.636" cy="2.636" r="2.636"/><circle class="e" cx="2.636" cy="2.636" r="2.636" transform="translate(10.545)"/></g><path class="g" d="M346.754,286.523H320.214a2.636,2.636,0,1,1,0-5.273h26.539a2.636,2.636,0,1,1,0,5.273Z" transform="translate(-269.948 -239.068)"/></svg>