<svg xmlns="http://www.w3.org/2000/svg" width="116.989" height="78.489" viewBox="0 0 116.989 78.489"><defs><style>.a{fill:#dadadb;}.b{fill:#585964;}.c{fill:#f5ead4;}.d{fill:#bf2430;}.e{fill:#bbdbea;}.f{fill:#44929e;}.g{fill:#fff;}.h{fill:#7bbccf;}.i{fill:#2494c6;}.j{fill:#cee5ef;}.k{fill:#fbf6ed;}.l{fill:#d0c7ab;}.m{fill:#c1c1c1;opacity:0.5;}.n{fill:#343643;}</style></defs><rect class="a" width="24.547" height="34.521" transform="translate(38.006 40.84)"/><path class="b" d="M219.882,410.256H196.056A2.183,2.183,0,0,1,193.7,408.3v-4.432a2.183,2.183,0,0,1,2.356-1.952h23.825a2.181,2.181,0,0,1,2.354,1.952V408.3A2.181,2.181,0,0,1,219.882,410.256Z" transform="translate(-157.688 -358.305)"/><path class="b" d="M219.882,461.154H196.056A2.183,2.183,0,0,1,193.7,459.2v-4.43a2.182,2.182,0,0,1,2.356-1.952h23.825a2.18,2.18,0,0,1,2.354,1.952v4.43A2.181,2.181,0,0,1,219.882,461.154Z" transform="translate(-157.688 -398.856)"/><path class="b" d="M219.882,512.044H196.056a2.182,2.182,0,0,1-2.356-1.952v-4.43a2.183,2.183,0,0,1,2.356-1.952h23.825a2.181,2.181,0,0,1,2.354,1.952v4.43A2.18,2.18,0,0,1,219.882,512.044Z" transform="translate(-157.688 -439.4)"/><path class="c" d="M292.89,414.475a1.035,1.035,0,1,1-1.035-1.035A1.035,1.035,0,0,1,292.89,414.475Z" transform="translate(-235.063 -367.483)"/><path class="d" d="M307.89,414.475a1.035,1.035,0,1,1-1.035-1.035A1.035,1.035,0,0,1,307.89,414.475Z" transform="translate(-247.014 -367.483)"/><path class="c" d="M292.89,461.875a1.035,1.035,0,1,1-1.035-1.035A1.035,1.035,0,0,1,292.89,461.875Z" transform="translate(-235.063 -405.246)"/><path class="d" d="M307.89,461.875a1.035,1.035,0,1,1-1.035-1.035A1.035,1.035,0,0,1,307.89,461.875Z" transform="translate(-247.014 -405.246)"/><path class="c" d="M292.89,509.275a1.033,1.033,0,1,1-.3-.732A1.035,1.035,0,0,1,292.89,509.275Z" transform="translate(-235.063 -443.009)"/><path class="d" d="M307.89,509.275a1.033,1.033,0,1,1-.3-.732A1.035,1.035,0,0,1,307.89,509.275Z" transform="translate(-247.014 -443.009)"/><rect class="e" width="24.547" height="34.521" transform="translate(37.559 40.362)"/><path class="f" d="M217.68,407.906H193.856a2.183,2.183,0,0,1-2.356-1.952v-4.432a2.183,2.183,0,0,1,2.356-1.952H217.68a2.183,2.183,0,0,1,2.356,1.952v4.438A2.183,2.183,0,0,1,217.68,407.906Z" transform="translate(-155.936 -356.432)"/><path class="f" d="M217.68,458.8H193.856a2.183,2.183,0,0,1-2.356-1.952v-4.43a2.183,2.183,0,0,1,2.356-1.954H217.68a2.183,2.183,0,0,1,2.356,1.954v4.43A2.183,2.183,0,0,1,217.68,458.8Z" transform="translate(-155.936 -396.976)"/><path class="f" d="M217.68,509.717H193.856a2.183,2.183,0,0,1-2.356-1.952v-4.422a2.183,2.183,0,0,1,2.356-1.954H217.68a2.183,2.183,0,0,1,2.356,1.954v4.43A2.183,2.183,0,0,1,217.68,509.717Z" transform="translate(-155.936 -437.552)"/><path class="c" d="M290.69,412.125a1.035,1.035,0,1,1-1.035-1.035A1.035,1.035,0,0,1,290.69,412.125Z" transform="translate(-233.31 -365.61)"/><path class="d" d="M305.686,412.125a1.033,1.033,0,1,1-.3-.732A1.033,1.033,0,0,1,305.686,412.125Z" transform="translate(-245.261 -365.61)"/><path class="c" d="M290.69,459.523a1.035,1.035,0,1,1-1.035-1.033A1.035,1.035,0,0,1,290.69,459.523Z" transform="translate(-233.31 -403.374)"/><path class="d" d="M305.686,459.523a1.033,1.033,0,1,1-1.033-1.033A1.033,1.033,0,0,1,305.686,459.523Z" transform="translate(-245.261 -403.374)"/><path class="c" d="M290.69,506.945a1.035,1.035,0,1,1-1.035-1.035A1.035,1.035,0,0,1,290.69,506.945Z" transform="translate(-233.31 -441.153)"/><path class="d" d="M305.686,506.945a1.033,1.033,0,1,1-.3-.732,1.033,1.033,0,0,1,.3.732Z" transform="translate(-245.261 -441.153)"/><rect class="e" width="24.547" height="34.521" transform="translate(1.994 40.362)"/><path class="f" d="M42.75,407.906H18.926a2.183,2.183,0,0,1-2.356-1.952v-4.432a2.183,2.183,0,0,1,2.356-1.952H42.75a2.183,2.183,0,0,1,2.356,1.952v4.438A2.183,2.183,0,0,1,42.75,407.906Z" transform="translate(-16.57 -356.432)"/><path class="f" d="M42.75,458.8H18.926a2.183,2.183,0,0,1-2.356-1.952v-4.43a2.183,2.183,0,0,1,2.356-1.954H42.75a2.183,2.183,0,0,1,2.356,1.954v4.43A2.183,2.183,0,0,1,42.75,458.8Z" transform="translate(-16.57 -396.976)"/><path class="f" d="M42.75,509.717H18.926a2.183,2.183,0,0,1-2.356-1.952v-4.422a2.183,2.183,0,0,1,2.356-1.954H42.75a2.183,2.183,0,0,1,2.356,1.954v4.43A2.183,2.183,0,0,1,42.75,509.717Z" transform="translate(-16.57 -437.552)"/><path class="g" d="M115.76,412.125a1.035,1.035,0,1,1-1.033-1.035A1.035,1.035,0,0,1,115.76,412.125Z" transform="translate(-93.945 -365.61)"/><path class="h" d="M130.74,412.125a1.033,1.033,0,1,1-.3-.732A1.035,1.035,0,0,1,130.74,412.125Z" transform="translate(-105.879 -365.61)"/><path class="g" d="M115.76,459.523a1.035,1.035,0,1,1-1.033-1.033A1.035,1.035,0,0,1,115.76,459.523Z" transform="translate(-93.945 -403.374)"/><circle class="h" cx="1.035" cy="1.035" r="1.035" transform="translate(22.793 55.114)"/><path class="g" d="M115.76,506.945a1.035,1.035,0,1,1-1.033-1.035A1.035,1.035,0,0,1,115.76,506.945Z" transform="translate(-93.945 -441.153)"/><path class="h" d="M130.74,506.945a1.033,1.033,0,1,1-.3-.732A1.035,1.035,0,0,1,130.74,506.945Z" transform="translate(-105.879 -441.153)"/><path class="g" d="M348.729,540.58c-.592.037-1.189.057-1.789.057C347.54,540.637,348.137,540.617,348.729,540.58Z" transform="translate(-279.774 -468.774)"/><path class="i" d="M464.08,474.893c-.268.492-.079.321,1.443-2.033q-.567.876-1.191,1.706C464.251,474.68,464.163,474.785,464.08,474.893Z" transform="translate(-373.017 -414.822)"/><path class="j" d="M254.738,262.679c-.7-.238-1.441-.144-2.139-.344-.407-.118-.407-.372-.4-.736,0-.484-.39-.74-.8-.9a2.936,2.936,0,0,1-1.474-1.246c-.246-.407-1.159-1.759-1.6-.83-.423.895-.813,1.685-1.986,1.641a1.9,1.9,0,0,1-1.71-1.875c-.018-1.126,1.509-1.061,1.384-2.259-.136-1.313-1.651-2.057-2.667-2.623-.047-.024-.73-.407-.634-.464.333-.215,1.22.144,1.509.3.622.325,1.513,1.661,2.342,1.145s-.935-1.937-1.324-2.131-1.035-.161-1.342-.537c-.264-.323-.252-.813-.407-1.191a3.949,3.949,0,0,0-2.818-1.883c-.773-.136-1.82-.6-1.895-1.476-.256-.1-.514-.183-.775-.268-.925.433-1.789.986-2.722,1.4-.421.187-1.22.61-1.681.3-.74-.488.14-1.952-.449-2.584-.433-.468-1.411-.071-1.95-.075-.136,0-.646-.169-.722.018s.1.433.163.579c.25.588.2,1.114-.61,1a2.394,2.394,0,0,1-1.474-1.053l-1.332.577c.742,1.781-3.885-.114-4.125.793-.077.293.476.647.718.638.165,0,.48-.329.61-.2.295.262.311,1.017.342,1.38,0,.059-.028.541.081.439.746-.7,1.689-1.078,2.44-1.757a2.317,2.317,0,0,1,.813-.61c.421-.108.813.293,1.092.555.98.956,2.086,2.362,1.933,3.83-.022.22-.124.673-.437.61-.427-.071-.669-.832-.943-1.11-.588-.594-2.147-1.273-2.615-.165-.313.746.76,1.12,1.263,1.358.175.081.547.2.61.429.075.3-.642.478-.813.5-.951.13-1.661-.659-2.32-1.22-.61-.512-.293.522-.065.785.065.073.307.268.232.384-.155.244-.878.218-1.108.24a7.564,7.564,0,0,0-3.863,1.358,11.235,11.235,0,0,0-2.045,1.9c-.041.047-.079.1-.118.144a17.623,17.623,0,0,1-1,3.2c-.258.545-.386.228-.407-.224-.039-1.031.26-2.283-.4-3.186-1.181-1.626-3.849.691-4.733,1.559-.712.7-1.9,2.125-1.049,3.153s1.708-.449,2.556-.539a1.592,1.592,0,0,1,.984.222c-.5.464-1.039.872-1.543,1.326-.236.2-.39.419,0,.527s.994.045,1.277.37c.244.279-.026.791-.128,1.076-.232.669-.675,2.208,0,2.781.5.421,1.718-.126,2.236-.24,2.588-.569,5.43-.466,6.969,2.011a4.492,4.492,0,0,0,.74,1.145,4.769,4.769,0,0,0,1.315.7,1.809,1.809,0,0,1,.917.61c.287.486-.2,1.1-.425,1.5-.352.659-1.09,1.765-.949,2.576a.24.24,0,0,0,.342.2,11.061,11.061,0,0,1,5.845,1.805,2.33,2.33,0,0,1,1.183,1.868c-.057,1.12-1.22,1.813-1.972,2.474a7.065,7.065,0,0,0-2.586,4.007c-.319,1.533-1.732,2.121-3.168,2.336-1.267,4.4-4.162,3.7-4.162,3.7-.317.793-.813,2.2-1.771,2.44-.407.1-.856-.1-1.161.256-.61.728-.321,1.929-.171,2.769.085.466.569,2.049-.232,2.177a1.555,1.555,0,0,1-1.626-1.116,9.351,9.351,0,0,1-.079-3.582,11.634,11.634,0,0,0-.419-4.4c-.246-.858-.791-2.017-.453-2.915.171-.451.61-.653.923-.992a3.806,3.806,0,0,0,.864-1.692c.2-.836.287-2.123-.474-2.722-.673-.529-1.852-.742-2.271-1.545-.254-.49.161-.886.394-1.281a2.121,2.121,0,0,0,.1-2.08c-.486-1-1.732-1.7-1.978-2.806-.279-1.242,1.252-2.358,2-3.088.569-.551,1.13-1.112,1.661-1.7a5.143,5.143,0,0,0,1.027-1.383c.134-.327-.077-.427-.38-.37a5.353,5.353,0,0,1-2.033.244,2.8,2.8,0,0,1-1.567-.84,13.557,13.557,0,0,0-.3-1.895,1.121,1.121,0,0,0-.342-.661c-.384-.264-.661-.268-.927-.736a5.382,5.382,0,0,0-.7-1.161,4.241,4.241,0,0,0-1-.718c-.634-.362-1.149-.744-1.035-1.555.2-1.391,1.22-2.562,1.523-3.94.091-.4.144-1.527-.514-.87a4.159,4.159,0,0,0-.762,1.22c-.112.246-.274.659-.545.781-.443.2-.118-1.173-.085-1.279.762-2.5,2.936-3.863,4.806-5.489.161-.138,1.319-1,1.147-1.283a2.125,2.125,0,0,1-1.293-.407,30.189,30.189,0,0,0-14.1,32.033,30.517,30.517,0,0,0,20.31,22.622A30.14,30.14,0,0,0,252.465,294.1c.325-.594,1.322-2.163,1.443-2.033-.34-.374-.677-.74-1.2-.478a4.461,4.461,0,0,0-1.161,1.017c-1,1.078-1.893,2.249-2.958,3.253-.525.5-1.086.952-1.58,1.48a7.37,7.37,0,0,1-1.017,1.059c-.742.533-1.293-1.423-1.372-1.85a3.1,3.1,0,0,1,1.252-2.846c.543-.486,1.893-1.138,1.964-1.942.075-.852-.917-1.626-.6-2.48.2-.514.844-.671,1.2-1.051a3.318,3.318,0,0,0,.732-1.572,4.395,4.395,0,0,1,.372-1.277c.226-.38.61-.583.844-.941.553-.848.939-2.145.189-3-.264-.3-.85-.468-.966-.88-.085-.3.254-.557.457-.718.644-.516,1.437-1.065,1.165-2.011-.226-.793-.945.14-1.4.1-.61-.053-.435-1.324-.531-1.74-.108-.466-1.677.2-1.907.258-.945.262-2.348.718-3.172-.081-.7-.673-.795-1.8-1.153-2.643a17.241,17.241,0,0,0-1.984-2.846c-.523-.769.675-.531,1.13-.706.888-.348,1.035-1.4,1.043-2.236,0-.764-.122-1.517-.165-2.277a2.809,2.809,0,0,1,.144-1.4c.309-.61,1.183-.386,1.708-.61.407-.181.407-.61.466-.992.083-.594.468-.7.99-.825,1.017-.25,2-.927,3.074-.929a.789.789,0,0,1,.836.61c.071.285-.045.937.177,1.165.087.089.37.073.49.134a5.274,5.274,0,0,1,1.468,1.5c.138.175.407.671.675.689.232.014.561-.358.74-.47.484-.3,1.2-.447,1.529-.939C255.708,263.108,255.088,262.8,254.738,262.679Z" transform="translate(-161.404 -233.995)"/><path class="i" d="M464.48,474.877c.083-.108.171-.213.252-.323q.624-.829,1.191-1.706C465.806,472.714,464.805,474.284,464.48,474.877Z" transform="translate(-373.417 -414.806)"/><path class="g" d="M212.194,325.91q-.256.508-.494,1.035Q211.938,326.42,212.194,325.91Z" transform="translate(-172.029 -297.748)"/><path class="g" d="M214.187,325.37c-.02.037-.039.071-.057.11C214.148,325.441,214.167,325.407,214.187,325.37Z" transform="translate(-173.965 -297.318)"/><path class="g" d="M211.4,331c-.026.055-.051.112-.077.167C211.346,331.112,211.373,331.055,211.4,331Z" transform="translate(-171.726 -301.803)"/><path class="g" d="M207.033,337.76c-.159.407-.311.813-.453,1.22Q206.8,338.362,207.033,337.76Z" transform="translate(-167.95 -307.189)"/><path class="g" d="M209.607,331.82c-.152.34-.3.681-.437,1.027C209.31,332.5,209.455,332.16,209.607,331.82Z" transform="translate(-170.013 -302.456)"/><path class="g" d="M214.378,260.372a30.412,30.412,0,0,1,11.469-12.294,2.125,2.125,0,0,0,1.293.407s.577,0-3.123,2.891-3.355,6.912-2.2,4.379,2.2-1.6.35,1.984.972,2.43,1.929,4.625,1.309-.462,1.771,3.7a2.98,2.98,0,0,0,3.239.693c2.078-.693-.346,1.848-2.543,3.932s-1.507,2.773-.348,4.048,1.626,2.314.577,3.7,1.626,1.85,2.314,2.657.577,3.472-1.041,4.631.813,3.7.462,7.284-.262,5.083,1.372,5.321-.216-3.123.478-4.625,1.506,1.041,3.125-3.007c0,0,2.9.693,4.162-3.7,0,0,2.543-.348,3.009-1.734s-.116-2.314,3.584-5.321-2.545-5.321-5.9-5.436c0,0-1.23.5.925-3.355.939-1.683-1.852-1.273-2.545-2.775a5.064,5.064,0,0,0-5.55-2.887c-3.233.346-4.168,1.507-4.28-.461s1.385-2.889-.234-3.123-.813-.348.929-1.966a1.642,1.642,0,0,0-2.084.348c-1.041,1.045-2.893-.577-.7-2.891s5.666-4.05,5.436.346,1.389-1.984,1.389-1.984,2.43-3.107,5.436-3.334,1.157-.35,1.157-1.391,1.387,1.736,3.066,1.041-1.8-.925-1.448-2.08,2.316-.813,3.123.693,1.734-.813-.346-3.241-1.736-.923-3.7.116-1.155,1.626-1.5-.116-.459.116-1.387-.813,1.651-.5,3.007-.35.925-.813.925-.813l1.332-.577s.868,1.271,1.907,1.039-.693-1.852.346-1.626,2.44-.693,2.545.7-.813,3.239,3.009,1.155c.771-.419,1.283-.693,1.626-.856a30.179,30.179,0,0,0-36.374,15.045Z" transform="translate(-174.156 -232.32)"/><path class="g" d="M208.883,336.87l-.073.181Z" transform="translate(-169.726 -306.48)"/><path class="k" d="M397.13,252.7a1.13,1.13,0,0,0,.6.929c1.5.923,1.043.114,3.007,1.271s.7,2.44,2.2,2.661,2.893,2.314,1.738,2.43-1.275-1.271-3.007-1.507.7.577,1.85,1.626,1.157,2.271,0,2.757-.3,3.143,1.584,2.793,1.187-2.312,2.236-1.846.693,1.614,2.44,2.312-.234,1.616,1.852,1.732,3.123.925,1.271,1.734-.923,1.5-2.545-.464-1.46-.081-1.626-1.964-2.773-.116-4.16.116-.234,1.626-1.506,1.848-1.852-.114-1.5,2.893-.459,3.7-1.85,3.7,1.161,1.626,1.85,3.7.813,3.357,3.82,2.545,2.08-.813,2.43.813,1.626-.927,1.848.691-2.891,1.968-1.159,3.007.47,3.47-.346,4.048-.232,2.657-1.964,3.586.813,2.541-.232,3.588-3.82,2.312-2.777,4.857,1.045,1.039,3.241-.813,4.048-4.971,5.083-4.855c.372.043.551.333.773.577a30.388,30.388,0,0,1-14.077,11.637,30.183,30.183,0,0,0-1.059-56.4Z" transform="translate(-319.76 -239.422)"/><path class="g" d="M394.63,251.79c.171.057.337.124.508.185h0C394.967,251.906,394.8,251.847,394.63,251.79Z" transform="translate(-317.768 -238.697)"/><path class="l" d="M421.89,520c-.071.043-.148.079-.22.12h0A1.44,1.44,0,0,1,421.89,520Z" transform="translate(-339.311 -452.378)"/><path class="l" d="M246.5,280.457c.252-.232.518-.451.779-.677h0C247.018,280,246.752,280.231,246.5,280.457Z" transform="translate(-199.754 -260.997)"/><path class="l" d="M457.187,491.29l-.077.079h0Z" transform="translate(-367.545 -429.505)"/><path class="l" d="M451.885,491.85h0c-.423.466-.856.921-1.305,1.36C451.019,492.771,451.454,492.316,451.885,491.85Z" transform="translate(-362.343 -429.951)"/><path class="m" d="M379.9,274.167a30.183,30.183,0,0,0-19.965-28.4l-.006,0c-.171-.063-.34-.122-.508-.179l.157.057c-.14-.049-.281-.1-.423-.146a30.13,30.13,0,0,0-8.72-1.5v60.321a30.051,30.051,0,0,0,8.055-1.271,29.483,29.483,0,0,0,3.922-1.515h0c.23-.108.466-.2.693-.311-.069.033-.142.059-.2.094.636-.311,1.26-.649,1.872-1,.049-.028.1-.053.15-.083h0a30.583,30.583,0,0,0,7.177-5.843l.033-.035c.5-.553.976-1.126,1.433-1.716q-.565.726-1.167,1.423.634-.72,1.22-1.484c-.228.419-.1.321.962-1.293.041-.059.077-.122.118-.181l.368-.565h0A30,30,0,0,0,379.9,274.167Z" transform="translate(-282.554 -232.491)"/><path class="l" d="M403.763,527c-.472.22-.939.445-1.423.642.484-.2.951-.421,1.423-.642Z" transform="translate(-323.91 -457.955)"/><path class="l" d="M415.136,520.94h0c-.492.283-.988.561-1.5.813C414.136,521.505,414.634,521.227,415.136,520.94Z" transform="translate(-332.913 -453.127)"/><rect class="e" width="47.527" height="78.489" transform="translate(65.597)"/><path class="n" d="M370.912,241H324.784a4.3,4.3,0,0,1-4.564-3.983v-9.039A4.3,4.3,0,0,1,324.784,224h46.128a4.3,4.3,0,0,1,4.562,3.983v9.039A4.3,4.3,0,0,1,370.912,241Z" transform="translate(-258.486 -216.557)"/><path class="n" d="M370.912,351.061H324.784c-2.521,0-4.564-1.685-4.564-3.761v-8.539c0-2.078,2.033-3.761,4.564-3.761h46.128c2.529,0,4.562,1.683,4.562,3.761V347.3C375.475,349.376,373.442,351.061,370.912,351.061Z" transform="translate(-258.486 -304.99)"/><path class="n" d="M370.912,461.451H324.784c-2.521,0-4.564-1.626-4.564-3.619v-8.214c0-2,2.033-3.619,4.564-3.619h46.128c2.529,0,4.562,1.626,4.562,3.619v8.214C375.475,459.825,373.442,461.451,370.912,461.451Z" transform="translate(-258.486 -393.423)"/><path class="g" d="M512.321,250.007a2,2,0,1,1-2-2.007A2,2,0,0,1,512.321,250.007Z" transform="translate(-408.344 -235.678)"/><path class="h" d="M541.321,250.007a2,2,0,1,1-.584-1.418A2,2,0,0,1,541.321,250.007Z" transform="translate(-431.448 -235.678)"/><path class="g" d="M512.321,358.881a2,2,0,1,1-2-1.881A1.946,1.946,0,0,1,512.321,358.881Z" transform="translate(-408.344 -322.517)"/><path class="h" d="M541.321,358.881a2,2,0,1,1-2-1.881A1.944,1.944,0,0,1,541.321,358.881Z" transform="translate(-431.448 -322.517)"/><path class="g" d="M512.321,466.858a2.006,2.006,0,1,1-2-1.858A1.934,1.934,0,0,1,512.321,466.858Z" transform="translate(-408.344 -408.56)"/><path class="h" d="M541.321,466.858a2.006,2.006,0,1,1-2-1.858A1.932,1.932,0,0,1,541.321,466.858Z" transform="translate(-431.448 -408.56)"/></svg>