<svg xmlns="http://www.w3.org/2000/svg" width="99.34" height="99.34" viewBox="0 0 99.34 99.34"><defs><style>.a{fill:#e1f1fa;}.b{fill:#bfe1ff;}.c{fill:#7bbccf;}.d{fill:#44929e;}</style></defs><path class="a" d="M99.34,43.655A26.4,26.4,0,0,1,72.953,69.849H23.477A23.139,23.139,0,0,1,9.856,27.765,23.093,23.093,0,0,1,23.768,23.4,26.058,26.058,0,0,1,74.35,17.637C88.261,18.51,99.34,29.8,99.34,43.655Z"/><path class="b" d="M349.67,43.655a26.4,26.4,0,0,1-26.387,26.193H300V0a26.1,26.1,0,0,1,24.68,17.637C338.591,18.51,349.67,29.8,349.67,43.655Z" transform="translate(-250.33)"/><path class="c" d="M192.379,248.658a2.76,2.76,0,0,0-3.143.64,13.926,13.926,0,0,1-19.209,0,2.814,2.814,0,0,0-4.074,0,13.926,13.926,0,0,1-19.209,0,2.76,2.76,0,0,0-3.143-.64,2.9,2.9,0,0,0-1.8,2.678v14.726a44.787,44.787,0,0,0,24.913,40.279,2.961,2.961,0,0,0,2.561,0,44.787,44.787,0,0,0,24.913-40.279V251.336A2.9,2.9,0,0,0,192.379,248.658Z" transform="translate(-118.32 -207.292)"/><path class="d" d="M326.193,251.336v14.726a44.787,44.787,0,0,1-24.913,40.279,3.172,3.172,0,0,1-1.28.291V248.426a2.731,2.731,0,0,1,2.037.873,13.926,13.926,0,0,0,19.209,0,2.76,2.76,0,0,1,3.143-.64A2.9,2.9,0,0,1,326.193,251.336Z" transform="translate(-250.33 -207.293)"/><path class="a" d="M240.654,336.187a3.25,3.25,0,0,0-2.154-.873,24.432,24.432,0,0,1-10.361-2.27,3.325,3.325,0,0,0-2.445,0,24.433,24.433,0,0,1-10.361,2.27,3.25,3.25,0,0,0-2.154.873,3.025,3.025,0,0,0-.757,2.212,33.3,33.3,0,0,0,12.689,24.331,2.863,2.863,0,0,0,3.609,0A33.3,33.3,0,0,0,241.411,338.4,3.027,3.027,0,0,0,240.654,336.187Z" transform="translate(-177.247 -277.708)"/><path class="b" d="M314.494,338.4A33.3,33.3,0,0,1,301.8,362.731a2.969,2.969,0,0,1-1.8.64V332.813a3.041,3.041,0,0,1,1.223.233,24.435,24.435,0,0,0,10.361,2.27,3.25,3.25,0,0,1,2.154.873A3.026,3.026,0,0,1,314.494,338.4Z" transform="translate(-250.33 -277.71)"/></svg>