<svg xmlns="http://www.w3.org/2000/svg" width="101.138" height="104.117" viewBox="0 0 101.138 104.117"><defs><style>.a{fill:#ff2d20;fill-rule:evenodd;}</style></defs><path class="a" d="M101.081,23.554a1.648,1.648,0,0,1,.057.426V46.328a1.63,1.63,0,0,1-.819,1.414l-18.757,10.8V79.947a1.634,1.634,0,0,1-.815,1.414L41.593,103.9a1.75,1.75,0,0,1-.285.118c-.037.012-.071.035-.11.045a1.64,1.64,0,0,1-.835,0c-.045-.012-.086-.037-.128-.053a1.694,1.694,0,0,1-.269-.11L.819,81.36A1.632,1.632,0,0,1,0,79.947V12.9a1.666,1.666,0,0,1,.057-.428c.012-.047.041-.09.057-.136a1.606,1.606,0,0,1,.1-.253A1.524,1.524,0,0,1,.33,11.94a1.66,1.66,0,0,1,.145-.189,1.591,1.591,0,0,1,.161-.122,1.328,1.328,0,0,1,.179-.141h0L20.391.218a1.634,1.634,0,0,1,1.629,0l19.574,11.27h0a2,2,0,0,1,.179.139,1.927,1.927,0,0,1,.159.122,1.907,1.907,0,0,1,.147.191,1.5,1.5,0,0,1,.11.145,1.7,1.7,0,0,1,.106.253c.016.047.045.09.057.139a1.647,1.647,0,0,1,.057.426V54.777l16.311-9.392V23.978a1.647,1.647,0,0,1,.057-.424c.014-.049.041-.092.057-.139a1.837,1.837,0,0,1,.106-.253c.031-.053.075-.1.11-.145a1.676,1.676,0,0,1,.147-.189,1.565,1.565,0,0,1,.159-.122,1.644,1.644,0,0,1,.179-.141h0L79.118,11.3a1.632,1.632,0,0,1,1.629,0l19.574,11.27a1.8,1.8,0,0,1,.183.139c.051.041.11.077.157.122a1.9,1.9,0,0,1,.147.191,1.23,1.23,0,0,1,.11.145,1.615,1.615,0,0,1,.106.253,1.165,1.165,0,0,1,.057.139ZM97.875,45.385V26.8l-6.85,3.943-9.463,5.449V54.777l16.315-9.392ZM78.3,79v-18.6l-9.308,5.316L42.412,80.894V99.666L78.3,79ZM3.263,15.722V79l35.885,20.66V80.9L20.4,70.286l-.006,0-.008,0a75.912,75.912,0,0,0-.33-.253l0-.006a1.552,1.552,0,0,1-.134-.171,1.74,1.74,0,0,1-.122-.159l0-.006a1.3,1.3,0,0,1-.086-.2,1.205,1.205,0,0,1-.077-.183v0a1.559,1.559,0,0,1-.033-.238,1.413,1.413,0,0,1-.024-.183V25.114l-9.461-5.451-6.85-3.939ZM21.208,3.513,4.9,12.9,21.2,22.289,37.511,12.9,21.2,3.513ZM29.689,62.1l9.461-5.447V15.722L32.3,19.666l-9.463,5.449V66.047L29.689,62.1Zm50.243-47.51L63.626,23.98l16.307,9.388,16.305-9.39L79.933,14.592ZM78.3,36.193l-9.463-5.449L61.988,26.8V45.385l9.461,5.447L78.3,54.777V36.193ZM40.778,78.073,64.7,64.418l11.956-6.823L60.358,48.212,41.6,59.014,24.5,68.858l16.281,9.215Z" transform="translate(0 0)"/></svg>