<svg xmlns="http://www.w3.org/2000/svg" xmlns:xlink="http://www.w3.org/1999/xlink" width="173.888" height="106.498" viewBox="0 0 173.888 106.498"><defs><style>.a,.c{fill:#689f63;}.b{fill:#fff;}.b,.c{fill-rule:evenodd;}.d{clip-path:url(#a);}.e{fill:url(#b);}.f{clip-path:url(#c);}.g{fill:url(#d);}.h{clip-path:url(#e);}.i{fill:url(#f);}</style><clipPath id="a"><path d="M211.915,226.192l-16.561,9.559a2,2,0,0,0-1,1.732v19.131a2,2,0,0,0,1,1.732l16.562,9.566a2.005,2.005,0,0,0,2,0l16.559-9.566a2,2,0,0,0,1-1.732V237.483a2,2,0,0,0-1-1.732l-16.557-9.559a2.013,2.013,0,0,0-2,0" transform="translate(-194.354 -225.925)"/></clipPath><linearGradient id="b" x1="-0.847" y1="-1.034" x2="-0.838" y2="-1.034" gradientUnits="objectBoundingBox"><stop offset="0.3" stop-color="#3e863d"/><stop offset="0.5" stop-color="#55934f"/><stop offset="0.8" stop-color="#5aad45"/></linearGradient><clipPath id="c"><path d="M195.4,257.915a2,2,0,0,0,.59.517l14.206,8.206L212.56,268a2.007,2.007,0,0,0,1.153.261,2.044,2.044,0,0,0,.393-.072l17.466-31.981a1.981,1.981,0,0,0-.465-.369l-10.844-6.262-5.732-3.3a2.089,2.089,0,0,0-.519-.208Zm0,0" transform="translate(-195.398 -226.069)"/></clipPath><linearGradient id="d" x1="-0.742" y1="-0.932" x2="-0.737" y2="-0.932" gradientUnits="objectBoundingBox"><stop offset="0.57" stop-color="#3e863d"/><stop offset="0.72" stop-color="#619857"/><stop offset="1" stop-color="#76ac64"/></linearGradient><clipPath id="e"><path d="M214.334,225.941a2.02,2.02,0,0,0-.8.256l-16.513,9.531,17.807,32.433a1.986,1.986,0,0,0,.711-.245l16.561-9.566a2.007,2.007,0,0,0,.967-1.366l-18.153-31.01a2.081,2.081,0,0,0-.4-.04c-.055,0-.11,0-.165.008" transform="translate(-197.021 -225.934)"/></clipPath><linearGradient id="f" x1="-2.148" y1="-2.103" x2="-2.138" y2="-2.103" gradientUnits="objectBoundingBox"><stop offset="0.16" stop-color="#6bbf47"/><stop offset="0.38" stop-color="#79b461"/><stop offset="0.47" stop-color="#75ac64"/><stop offset="0.7" stop-color="#659e5a"/><stop offset="0.9" stop-color="#3e863d"/></linearGradient></defs><g transform="translate(0 0)"><path class="a" d="M189.288,204.762a3.305,3.305,0,0,1-1.647-.44l-5.243-3.1c-.783-.438-.4-.593-.143-.682a10.584,10.584,0,0,0,2.37-1.081.4.4,0,0,1,.39.028l4.028,2.39a.531.531,0,0,0,.487,0l15.7-9.064a.5.5,0,0,0,.24-.425V174.262a.5.5,0,0,0-.243-.432l-15.7-9.057a.483.483,0,0,0-.483,0l-15.694,9.057a.5.5,0,0,0-.249.428v18.121a.484.484,0,0,0,.244.421l4.3,2.484c2.335,1.167,3.762-.208,3.762-1.592V175.807a.448.448,0,0,1,.456-.452h1.989a.45.45,0,0,1,.452.452V193.7c0,3.113-1.7,4.9-4.65,4.9a6.732,6.732,0,0,1-3.62-.983l-4.12-2.374a3.32,3.32,0,0,1-1.647-2.866V174.258a3.3,3.3,0,0,1,1.647-2.862l15.719-9.068a3.443,3.443,0,0,1,3.3,0l15.7,9.072a3.313,3.313,0,0,1,1.647,2.862v18.121a3.322,3.322,0,0,1-1.647,2.862l-15.7,9.068a3.3,3.3,0,0,1-1.655.44" transform="translate(-103.342 -98.264)"/><path class="a" d="M218.154,205.175c-6.871,0-8.312-3.154-8.312-5.8a.452.452,0,0,1,.455-.452h2.028a.454.454,0,0,1,.448.384c.307,2.067,1.219,3.109,5.373,3.109,3.31,0,4.717-.748,4.717-2.5,0-1.01-.4-1.761-5.542-2.264-4.3-.425-6.958-1.372-6.958-4.811,0-3.168,2.673-5.055,7.15-5.055,5.028,0,7.52,1.745,7.834,5.5a.458.458,0,0,1-.122.35.467.467,0,0,1-.334.145h-2.04a.451.451,0,0,1-.44-.354c-.491-2.174-1.678-2.87-4.906-2.87-3.612,0-4.033,1.258-4.033,2.2,0,1.144.5,1.478,5.369,2.123,4.827.641,7.119,1.545,7.119,4.937,0,3.42-2.854,5.381-7.83,5.381m19.127-19.218h.527a.458.458,0,0,0,.515-.48c0-.464-.318-.464-.5-.464h-.542Zm-.641-1.486h1.167c.4,0,1.187,0,1.187.9a.78.78,0,0,1-.641.833c.468.031.5.338.562.77a3.313,3.313,0,0,0,.177.9h-.719c-.02-.157-.13-1.022-.13-1.069-.047-.193-.114-.287-.354-.287h-.594v1.36h-.656Zm-1.4,1.69a2.537,2.537,0,1,0,2.528-2.531,2.541,2.541,0,0,0-2.528,2.531m5.566.012a3.027,3.027,0,1,1-3.027-3.027,3.036,3.036,0,0,1,3.027,3.027" transform="translate(-127.357 -111.163)"/><path class="b" d="M37.318,35.594a2.011,2.011,0,0,0-1.006-1.747L19.663,24.267A1.944,1.944,0,0,0,18.748,24h-.172a1.978,1.978,0,0,0-.92.263L1.007,33.847A2.026,2.026,0,0,0,0,35.6L.037,61.4a.991.991,0,0,0,.5.869.951.951,0,0,0,1,0l9.9-5.668a2.03,2.03,0,0,0,1.006-1.745V42.8a2,2,0,0,1,1-1.741l4.214-2.427a2,2,0,0,1,1.006-.27,1.964,1.964,0,0,1,1,.27l4.212,2.426A2.006,2.006,0,0,1,24.881,42.8V54.851A2.037,2.037,0,0,0,25.889,56.6l9.892,5.664a.983.983,0,0,0,1.006,0,1.009,1.009,0,0,0,.5-.869Zm78.565,13.434a.5.5,0,0,1-.252.435l-5.719,3.3a.5.5,0,0,1-.5,0l-5.719-3.3a.5.5,0,0,1-.252-.435v-6.6a.506.506,0,0,1,.248-.436l5.715-3.3a.508.508,0,0,1,.507,0l5.719,3.3a.5.5,0,0,1,.252.436Zm1.545-48.9a1.005,1.005,0,0,0-1.5.879v25.55a.7.7,0,0,1-1.055.609l-4.171-2.4a2.008,2.008,0,0,0-2.009,0L92.041,34.376a2.007,2.007,0,0,0-1.006,1.737v19.23a2.013,2.013,0,0,0,1.006,1.741L108.7,66.7a2.019,2.019,0,0,0,2.011,0l16.655-9.623a2.016,2.016,0,0,0,1.006-1.741V7.415a2.016,2.016,0,0,0-1.034-1.757Zm55.461,42.124a2.011,2.011,0,0,0,1-1.738v-4.66a2.012,2.012,0,0,0-1-1.739l-16.549-9.607a2.01,2.01,0,0,0-2.017,0l-16.651,9.611a2.007,2.007,0,0,0-1.006,1.741V55.081a2.018,2.018,0,0,0,1.014,1.749l16.545,9.43a2.006,2.006,0,0,0,1.973.012L166.2,60.71a1,1,0,0,0,.008-1.749l-16.753-9.615a1,1,0,0,1-.507-.869v-6.03a1,1,0,0,1,.5-.871l5.212-3.007a.994.994,0,0,1,1,0l5.216,3.007a1,1,0,0,1,.5.869v4.741a1,1,0,0,0,1.509.869Zm0,0" transform="translate(0 0)"/><path class="c" d="M389.3,105.119a.382.382,0,0,1,.385,0l3.2,1.844a.386.386,0,0,1,.193.334v3.691a.386.386,0,0,1-.193.334l-3.2,1.844a.382.382,0,0,1-.385,0l-3.194-1.844a.385.385,0,0,1-.2-.334V107.3a.381.381,0,0,1,.193-.334Zm0,0" transform="translate(-234.217 -63.767)"/><g class="d" transform="translate(45.617 24.336)"><path class="e" d="M222.37,211.476,175.7,188.6l-23.927,48.811,46.664,22.875Zm0,0" transform="translate(-168.514 -203.274)"/></g><g class="f" transform="translate(46.027 24.392)"><path class="g" d="M144.07,214.3l32.95,44.6L220.6,226.7l-32.952-44.6Zm0,0" transform="translate(-164.246 -199.384)"/></g><g class="h" transform="translate(46.665 24.339)"><path class="i" d="M197.02,225.934v42.229h36.039V225.934Zm0,0" transform="translate(-197.02 -225.934)"/></g></g></svg>