<svg xmlns="http://www.w3.org/2000/svg" width="18.855" height="18.776" viewBox="0 0 18.855 18.776"><path id="icon-mute" d="M-15041.438,12282.5l-4.749,4.749-.706-.706,4.342-4.343h-3.56a.931.931,0,0,1-.93-.929v-6.129a.924.924,0,0,1,.272-.661.934.934,0,0,1,.657-.275h4.247l6.968-5.7.816.386v4.835l5.185-5.187.71.706-5.895,5.9v11.736l-.8.4Zm6.357,3.4v-9.755l-5.64,5.64Zm-10.959-4.7h3.855v-5.993h-3.855Zm4.856-6.257v5.89l6.1-6.1v-4.778Z" transform="translate(15047.041 -12268.507)" fill="#fff"></path></svg>