<svg xmlns="http://www.w3.org/2000/svg" width="20.118" height="18.776" viewBox="0 0 20.118 18.776"><path id="icon-vol" d="M5.193,13.694H.931A.933.933,0,0,1,0,12.763V6.634A.931.931,0,0,1,.931,5.7H5.177L12.144,0l.816.387V18.372l-.795.4Zm.663-7.258v6.5l6.1,4.45V1.442ZM1,12.694H4.855V6.7H1Zm15.644,1.779a6.955,6.955,0,0,0,.249-10.418l.68-.734a7.955,7.955,0,0,1-.285,11.916Zm-1.914-1.739a4.743,4.743,0,0,0-.035-6.744l.7-.715a5.744,5.744,0,0,1,.043,8.166Z" transform="translate(0)" fill="#fff"></path></svg>